<mxfile host="app.diagrams.net" modified="2021-10-01T13:00:48.415Z" agent="5.0 (Windows NT 10.0; Win64; x64) AppleWebKit/537.36 (KHTML, like Gecko) Chrome/94.0.4606.71 Safari/537.36" etag="CbbSzVE3JBK8Ia7ftCS_" version="15.4.0" type="github">
  <diagram id="U5GuGis5cxZbUuP0ars5" name="Page-1">
    <mxGraphModel dx="1031" dy="622" grid="1" gridSize="10" guides="1" tooltips="1" connect="1" arrows="1" fold="1" page="1" pageScale="1" pageWidth="850" pageHeight="1100" math="0" shadow="0">
      <root>
        <mxCell id="0" />
        <mxCell id="1" parent="0" />
        <mxCell id="Hhp8C2FbrH4ivSbLL-C2-1" value="Actor" style="shape=umlActor;verticalLabelPosition=bottom;verticalAlign=top;html=1;outlineConnect=0;" vertex="1" parent="1">
          <mxGeometry x="40" y="260" width="39" height="67" as="geometry" />
        </mxCell>
        <mxCell id="Hhp8C2FbrH4ivSbLL-C2-2" value="Horizontal Container" style="swimlane;horizontal=0;rotation=-180;" vertex="1" parent="1">
          <mxGeometry x="90" y="193.5" width="200" height="200" as="geometry" />
        </mxCell>
        <mxCell id="Hhp8C2FbrH4ivSbLL-C2-15" value="Customer Facing Website" style="text;html=1;align=center;verticalAlign=middle;resizable=0;points=[];autosize=1;strokeColor=none;fillColor=none;" vertex="1" parent="Hhp8C2FbrH4ivSbLL-C2-2">
          <mxGeometry x="20" y="76.5" width="150" height="20" as="geometry" />
        </mxCell>
        <mxCell id="Hhp8C2FbrH4ivSbLL-C2-3" value="" style="shape=cylinder3;whiteSpace=wrap;html=1;boundedLbl=1;backgroundOutline=1;size=15;" vertex="1" parent="1">
          <mxGeometry x="390" y="210" width="60" height="80" as="geometry" />
        </mxCell>
        <mxCell id="Hhp8C2FbrH4ivSbLL-C2-4" value="" style="shape=cylinder3;whiteSpace=wrap;html=1;boundedLbl=1;backgroundOutline=1;size=15;" vertex="1" parent="1">
          <mxGeometry x="390" y="313.5" width="60" height="80" as="geometry" />
        </mxCell>
        <mxCell id="Hhp8C2FbrH4ivSbLL-C2-9" value="" style="endArrow=classic;html=1;rounded=0;edgeStyle=orthogonalEdgeStyle;" edge="1" parent="1">
          <mxGeometry relative="1" as="geometry">
            <mxPoint x="290" y="360" as="sourcePoint" />
            <mxPoint x="360" y="360" as="targetPoint" />
          </mxGeometry>
        </mxCell>
        <mxCell id="Hhp8C2FbrH4ivSbLL-C2-10" value="Stock" style="edgeLabel;resizable=0;html=1;align=center;verticalAlign=middle;" connectable="0" vertex="1" parent="Hhp8C2FbrH4ivSbLL-C2-9">
          <mxGeometry relative="1" as="geometry" />
        </mxCell>
        <mxCell id="Hhp8C2FbrH4ivSbLL-C2-16" value="Horizontal Container" style="swimlane;horizontal=0;rotation=0;" vertex="1" parent="1">
          <mxGeometry x="550" y="193.5" width="200" height="200" as="geometry" />
        </mxCell>
        <mxCell id="Hhp8C2FbrH4ivSbLL-C2-18" value="Store Facing Website" style="text;html=1;align=center;verticalAlign=middle;resizable=0;points=[];autosize=1;strokeColor=none;fillColor=none;" vertex="1" parent="Hhp8C2FbrH4ivSbLL-C2-16">
          <mxGeometry x="50" y="76.5" width="130" height="20" as="geometry" />
        </mxCell>
        <mxCell id="Hhp8C2FbrH4ivSbLL-C2-19" value="Actor" style="shape=umlActor;verticalLabelPosition=bottom;verticalAlign=top;html=1;outlineConnect=0;" vertex="1" parent="1">
          <mxGeometry x="770" y="260" width="39" height="67" as="geometry" />
        </mxCell>
        <mxCell id="Hhp8C2FbrH4ivSbLL-C2-20" value="" style="endArrow=classic;html=1;rounded=0;edgeStyle=orthogonalEdgeStyle;" edge="1" parent="1">
          <mxGeometry relative="1" as="geometry">
            <mxPoint x="290" y="239.5" as="sourcePoint" />
            <mxPoint x="360" y="239.5" as="targetPoint" />
          </mxGeometry>
        </mxCell>
        <mxCell id="Hhp8C2FbrH4ivSbLL-C2-21" value="Order" style="edgeLabel;resizable=0;html=1;align=center;verticalAlign=middle;" connectable="0" vertex="1" parent="Hhp8C2FbrH4ivSbLL-C2-20">
          <mxGeometry relative="1" as="geometry" />
        </mxCell>
        <mxCell id="Hhp8C2FbrH4ivSbLL-C2-22" value="" style="endArrow=classic;html=1;rounded=0;edgeStyle=orthogonalEdgeStyle;" edge="1" parent="1">
          <mxGeometry relative="1" as="geometry">
            <mxPoint x="550" y="240" as="sourcePoint" />
            <mxPoint x="470" y="240" as="targetPoint" />
            <Array as="points">
              <mxPoint x="480" y="240" />
            </Array>
          </mxGeometry>
        </mxCell>
        <mxCell id="Hhp8C2FbrH4ivSbLL-C2-23" value="Order" style="edgeLabel;resizable=0;html=1;align=center;verticalAlign=middle;" connectable="0" vertex="1" parent="Hhp8C2FbrH4ivSbLL-C2-22">
          <mxGeometry relative="1" as="geometry" />
        </mxCell>
        <mxCell id="Hhp8C2FbrH4ivSbLL-C2-24" value="" style="endArrow=classic;html=1;rounded=0;edgeStyle=orthogonalEdgeStyle;" edge="1" parent="1">
          <mxGeometry relative="1" as="geometry">
            <mxPoint x="550" y="360" as="sourcePoint" />
            <mxPoint x="470" y="360" as="targetPoint" />
          </mxGeometry>
        </mxCell>
        <mxCell id="Hhp8C2FbrH4ivSbLL-C2-25" value="Stock" style="edgeLabel;resizable=0;html=1;align=center;verticalAlign=middle;" connectable="0" vertex="1" parent="Hhp8C2FbrH4ivSbLL-C2-24">
          <mxGeometry relative="1" as="geometry" />
        </mxCell>
        <mxCell id="Hhp8C2FbrH4ivSbLL-C2-26" value="Retail Operation Website and Product Database" style="text;html=1;align=center;verticalAlign=middle;resizable=0;points=[];autosize=1;strokeColor=none;fillColor=none;fontSize=17;fontStyle=1" vertex="1" parent="1">
          <mxGeometry x="220" y="17" width="400" height="30" as="geometry" />
        </mxCell>
      </root>
    </mxGraphModel>
  </diagram>
</mxfile>
